<?xml version="1.0" standalone="no"?>
<!DOCTYPE svg PUBLIC "-//W3C//DTD SVG 20010904//EN"
 "http://www.w3.org/TR/2001/REC-SVG-20010904/DTD/svg10.dtd">
<svg version="1.0" xmlns="http://www.w3.org/2000/svg"
 width="828.000000pt" height="828.000000pt" viewBox="0 0 828.000000 828.000000"
 preserveAspectRatio="xMidYMid meet">
<metadata>
Created by potrace 1.14, written by Peter Selinger 2001-2017
</metadata>
<g transform="translate(0.000000,828.000000) scale(0.100000,-0.100000)"
fill="#000000" stroke="none">
<path d="M4015 7349 c-170 -13 -276 -46 -462 -140 -62 -32 -129 -63 -150 -69
-104 -34 -281 -137 -424 -246 -67 -52 -257 -248 -324 -334 -27 -36 -52 -67
-56 -70 -3 -3 -14 -20 -24 -37 -11 -18 -23 -33 -27 -33 -4 0 -8 -6 -8 -13 0
-8 -9 -22 -20 -32 -11 -10 -20 -22 -20 -26 0 -4 -21 -38 -46 -76 -25 -37 -55
-86 -66 -108 -37 -76 -49 -95 -59 -95 -15 0 -159 -141 -191 -188 -16 -24 -34
-55 -38 -70 -5 -15 -15 -45 -23 -67 -19 -52 -50 -200 -82 -399 -19 -115 -25
-182 -22 -245 6 -112 12 -135 59 -203 l39 -58 -63 -64 c-92 -93 -108 -114
-108 -138 0 -12 -3 -19 -6 -16 -8 9 -94 -73 -94 -89 0 -7 -9 -18 -20 -25 -11
-7 -20 -18 -20 -24 0 -17 -30 -73 -43 -81 -16 -11 -37 -49 -37 -68 0 -8 -10
-31 -21 -52 -12 -21 -23 -45 -24 -53 -1 -8 -4 -22 -7 -30 -18 -51 -28 -89 -28
-109 0 -12 -4 -30 -10 -40 -36 -68 -35 -494 1 -536 5 -5 9 -20 9 -34 0 -22 28
-117 50 -166 5 -11 19 -42 30 -70 41 -95 77 -160 97 -176 15 -13 16 -7 10 71
-12 147 -20 485 -14 512 4 14 23 41 43 60 53 52 108 62 316 56 95 -3 182 -2
194 2 24 9 47 79 33 101 -4 8 -2 17 7 23 10 7 16 37 19 88 4 56 12 89 30 124
14 26 25 61 25 77 0 17 5 56 10 86 6 31 29 155 51 276 22 121 45 238 50 260 5
22 21 87 35 145 14 58 28 116 31 130 3 14 11 40 19 58 33 76 42 98 48 115 3
10 10 16 16 12 5 -3 18 3 28 13 10 10 24 16 30 14 7 -2 12 3 12 11 0 10 8 13
25 9 15 -2 25 0 25 7 0 6 12 11 26 11 14 0 23 4 19 10 -4 6 6 10 22 10 27 0
91 32 104 52 3 5 16 5 32 -1 15 -6 27 -7 27 -3 0 9 81 29 124 31 16 1 34 5 40
10 6 5 36 9 66 10 30 0 66 4 80 7 14 4 59 9 100 11 41 3 77 9 80 13 3 5 56 10
118 12 61 2 112 6 112 11 0 4 5 7 11 7 5 0 7 -4 4 -10 -3 -5 -1 -10 4 -10 6 0
11 5 11 10 0 6 118 10 334 10 213 0 337 -4 341 -10 3 -5 37 -10 76 -10 39 0
69 -4 69 -10 0 -5 13 -10 29 -10 17 0 33 5 36 10 8 12 72 13 79 1 3 -5 23 -11
43 -14 21 -2 49 -7 63 -11 14 -3 53 -7 88 -8 34 -1 62 -6 62 -11 0 -5 14 -7
30 -5 22 3 30 0 31 -11 0 -11 2 -12 6 -3 6 14 39 16 48 2 3 -5 17 -10 30 -10
13 0 25 -6 28 -12 3 -10 9 -10 27 0 19 11 24 12 31 1 4 -8 11 -10 15 -7 3 4
13 1 21 -7 7 -8 30 -17 51 -20 20 -4 48 -11 62 -17 32 -15 30 -14 67 -23 18
-4 35 -16 38 -26 4 -11 15 -19 26 -19 11 0 27 -7 36 -15 8 -8 19 -13 24 -10 5
4 9 0 9 -7 0 -7 14 -22 30 -33 16 -11 30 -23 30 -27 0 -4 15 -32 34 -61 19
-29 41 -69 49 -88 8 -18 24 -54 35 -79 12 -25 35 -88 52 -140 l30 -94 0 -284
c0 -176 4 -291 10 -303 11 -20 60 -27 60 -9 0 6 4 10 9 10 4 0 14 -35 20 -77
7 -43 19 -105 27 -138 9 -33 18 -73 21 -90 11 -62 20 -65 197 -65 89 0 177 -5
198 -10 45 -13 105 -77 113 -124 4 -19 2 -119 -5 -223 -6 -103 -14 -242 -17
-308 l-5 -120 30 35 c17 19 31 39 32 44 0 5 7 18 16 28 9 9 26 35 38 57 86
158 112 212 126 258 8 28 18 55 23 59 4 4 7 16 7 26 0 10 4 26 9 36 19 38 31
146 31 290 0 163 -20 276 -62 356 -12 22 -35 67 -52 100 -17 34 -39 70 -48 80
-10 11 -18 24 -18 29 0 5 -26 44 -57 85 -32 42 -66 88 -75 102 -10 14 -34 45
-53 70 -40 52 -105 148 -105 156 0 2 -8 14 -18 25 -45 47 -47 64 -17 125 58
119 44 298 -59 724 -35 143 -100 247 -223 357 -57 51 -83 84 -110 138 -148
294 -330 529 -560 723 -34 29 -64 52 -67 52 -3 0 -29 18 -58 40 -29 22 -58 40
-64 40 -6 0 -17 7 -24 15 -13 15 -182 105 -199 105 -5 0 -38 13 -73 29 -35 16
-74 32 -88 36 -14 4 -29 11 -35 15 -5 4 -28 13 -50 20 -22 7 -44 16 -50 20
-12 8 -60 22 -185 55 -75 20 -316 50 -340 43 -3 -1 -45 -5 -95 -9z m902 -1885
c-3 -3 -12 -4 -19 -1 -8 3 -5 6 6 6 11 1 17 -2 13 -5z m523 -106 c0 -6 -6 -5
-15 2 -8 7 -15 14 -15 16 0 2 7 1 15 -2 8 -4 15 -11 15 -16z m-2633 -4 c-3 -3
-12 -4 -19 -1 -8 3 -5 6 6 6 11 1 17 -2 13 -5z m-86 -31 c-8 -15 -10 -15 -11
-2 0 17 10 32 18 25 2 -3 -1 -13 -7 -23z m-398 -448 c-3 -9 -8 -14 -10 -11 -3
3 -2 9 2 15 9 16 15 13 8 -4z m-31 -54 c-2 -16 -15 -40 -28 -52 -13 -12 -24
-26 -24 -30 0 -20 -94 -156 -133 -193 -24 -22 -53 -56 -63 -73 -10 -18 -24
-33 -31 -33 -7 0 -13 -6 -13 -12 -1 -13 -70 -67 -103 -80 -26 -11 -59 25 -51
56 3 13 1 27 -5 30 -12 8 23 86 39 86 5 0 7 6 4 14 -3 8 -1 17 5 21 6 3 11 11
11 16 0 6 -10 3 -22 -5 -37 -26 -42 -18 -9 15 17 17 35 28 40 24 6 -3 8 3 6
15 -4 23 19 40 46 33 11 -3 34 7 56 24 38 29 85 53 103 53 6 0 10 -7 10 -15 0
-33 63 -6 80 34 7 17 19 31 26 31 8 0 14 5 14 12 0 9 38 58 45 58 1 0 0 -13
-3 -29z m4100 -222 c18 -12 26 -19 17 -16 -13 4 -15 1 -11 -15 3 -11 13 -23
22 -25 20 -5 43 -50 34 -64 -3 -6 3 -13 14 -16 15 -3 20 -12 19 -31 -1 -16 3
-26 10 -25 6 2 19 -22 27 -51 20 -69 20 -76 -4 -76 -17 0 -20 7 -21 43 -2 29
-3 34 -6 15 -5 -30 -20 -37 -29 -14 -3 8 -15 16 -26 19 -11 3 -17 10 -14 15 3
5 -3 17 -14 27 -11 10 -20 24 -20 32 0 7 -6 16 -14 19 -8 3 -12 13 -9 25 3 10
0 19 -6 19 -6 0 -11 10 -11 23 0 12 0 31 -2 42 -3 29 1 75 7 75 2 0 19 -9 37
-21z m-411 -306 c-12 -20 -14 -14 -5 12 4 9 9 14 11 11 3 -2 0 -13 -6 -23z
m-24 -85 c-3 -8 -6 -5 -6 6 -1 11 2 17 5 13 3 -3 4 -12 1 -19z m10 -60 c-3 -7
-5 -2 -5 12 0 14 2 19 5 13 2 -7 2 -19 0 -25z m58 -36 c-3 -3 -11 0 -18 7 -9
10 -8 11 6 5 10 -3 15 -9 12 -12z"/>
<path d="M3195 4721 c-130 -37 -227 -99 -312 -200 -46 -54 -84 -134 -70 -147
3 -3 22 13 43 36 33 36 124 112 161 133 8 5 10 -12 6 -66 -9 -118 37 -219 127
-277 47 -30 50 -31 151 -28 74 2 98 6 84 12 -20 9 -35 25 -35 37 0 12 126 89
144 89 15 0 17 -6 14 -30 -9 -58 22 -33 64 52 23 47 25 173 3 225 -18 42 -19
53 -5 53 27 0 150 -139 150 -170 0 -6 7 -18 15 -26 13 -14 15 -13 15 4 0 11
-8 43 -17 72 -21 64 -114 163 -187 199 -103 50 -241 63 -351 32z m51 -118 c35
-46 6 -103 -51 -103 -26 0 -43 7 -56 22 -23 26 -23 32 -2 69 14 24 24 29 57
29 25 0 43 -6 52 -17z"/>
<path d="M4860 4726 c-86 -19 -150 -55 -216 -122 -59 -61 -94 -130 -94 -187 0
-18 4 -15 25 15 14 20 25 40 25 43 0 30 122 147 137 132 3 -4 -2 -24 -11 -47
-23 -57 -21 -183 3 -236 25 -55 76 -111 122 -135 30 -15 58 -19 136 -18 92 0
97 1 76 16 -36 24 -27 45 37 86 67 44 95 45 95 4 -1 -35 5 -34 32 7 39 61 56
131 50 202 -5 49 -3 63 6 58 32 -19 139 -108 167 -140 71 -82 39 31 -34 117
-144 171 -356 249 -556 205z m70 -138 c13 -25 13 -31 0 -55 -30 -55 -120 -35
-120 25 0 64 88 86 120 30z"/>
<path d="M3225 3199 c-92 -12 -216 -51 -373 -118 -79 -34 -145 -61 -147 -61
-3 0 -35 -14 -72 -31 -110 -51 -294 -108 -384 -120 -46 -6 -116 -9 -156 -6
-67 5 -73 4 -73 -13 0 -11 25 -135 56 -277 30 -142 71 -332 90 -422 19 -89 37
-168 41 -173 4 -7 54 -9 147 -5 159 7 255 29 394 90 46 21 87 37 91 37 5 0 47
17 93 38 75 35 107 48 233 95 41 15 131 38 223 56 29 6 98 11 152 11 73 0 100
3 100 13 0 10 -25 129 -157 747 -14 69 -30 130 -34 136 -10 13 -140 15 -224 3z
m-215 -200 c68 -35 63 -82 -15 -150 l-33 -29 19 -50 c14 -36 19 -76 19 -139 0
-85 1 -91 26 -110 18 -14 34 -19 50 -15 58 15 98 -23 76 -70 -6 -11 -13 -33
-16 -47 -3 -14 -16 -31 -30 -37 -29 -13 -58 4 -81 48 -9 17 -29 37 -45 45 -30
15 -30 15 -47 -22 -12 -25 -31 -44 -56 -57 -38 -18 -39 -18 -65 1 -15 11 -33
23 -40 27 -17 10 -32 -33 -42 -117 -4 -37 -13 -74 -20 -82 -16 -19 -44 -19
-60 0 -7 8 -21 15 -31 15 -10 0 -23 9 -29 21 -10 17 -7 28 14 60 15 21 31 39
36 39 5 0 20 21 34 47 l24 48 -39 73 c-31 59 -39 84 -39 127 0 60 -6 65 -74
65 -60 0 -89 39 -51 70 8 7 15 20 15 29 0 10 11 28 24 40 l25 23 30 -21 c16
-12 33 -30 36 -41 11 -34 40 -42 61 -18 30 34 114 68 166 68 55 0 73 20 63 73
-9 47 17 106 47 107 4 0 26 -9 48 -21z"/>
<path d="M2860 2630 c-16 -30 7 -74 42 -78 31 -4 51 24 46 66 -3 23 -8 27 -40
30 -29 2 -39 -1 -48 -18z"/>
<path d="M2726 2569 c-31 -37 -31 -40 -7 -70 17 -22 21 -22 45 -9 30 15 41 47
32 85 -9 34 -38 32 -70 -6z"/>
<path d="M1988 2953 c18 -7 15 -43 -4 -43 -22 0 -12 -24 12 -28 29 -4 46 30
28 57 -8 11 -23 21 -32 20 -10 0 -12 -3 -4 -6z"/>
<path d="M4950 2401 c0 -6 -15 -12 -32 -14 -18 -3 -8 -2 22 0 75 6 76 6 150 1
36 -3 52 -4 35 -1 -16 2 -34 9 -39 14 -13 12 -136 12 -136 0z"/>
<path d="M4840 2362 c0 -5 -11 -15 -25 -22 -14 -7 -23 -15 -21 -17 4 -4 47 17
56 28 3 3 12 9 20 12 10 4 8 6 -7 6 -13 1 -23 -3 -23 -7z"/>
<path d="M5175 2363 c31 -8 100 -59 130 -95 19 -24 23 -26 15 -9 -25 50 -105
112 -142 110 -20 -1 -21 -2 -3 -6z"/>
<path d="M4988 2323 c18 -2 45 -2 60 0 15 2 0 4 -33 4 -33 0 -45 -2 -27 -4z"/>
<path d="M4885 2298 c-23 -13 -65 -54 -65 -63 0 -4 19 9 41 29 23 19 51 37 63
39 19 4 19 4 1 5 -11 1 -29 -4 -40 -10z"/>
<path d="M5105 2303 c31 -6 68 -25 92 -47 13 -11 26 -17 29 -14 11 12 -84 68
-113 67 -20 -1 -22 -3 -8 -6z"/>
<path d="M5654 2260 c-145 -51 -203 -80 -160 -80 8 0 18 5 21 10 3 6 15 10 26
10 10 0 19 4 19 8 0 4 21 14 48 21 26 8 52 17 57 22 6 4 26 9 45 11 28 2 31 4
14 9 -12 4 -44 -1 -70 -11z"/>
<path d="M4957 2246 c-42 -15 -77 -43 -77 -60 0 -8 3 -8 8 0 20 31 79 54 139
54 34 0 65 -4 68 -10 3 -5 13 -10 22 -10 9 0 24 -10 34 -22 11 -11 19 -16 19
-10 0 20 -50 50 -101 61 -62 13 -65 13 -112 -3z"/>
<path d="M5830 2250 c-11 -7 -6 -10 20 -10 26 0 31 3 20 10 -8 5 -17 10 -20
10 -3 0 -12 -5 -20 -10z"/>
<path d="M5677 2196 c-61 -25 -78 -36 -59 -36 16 0 122 48 122 54 0 8 3 9 -63
-18z"/>
<path d="M4755 2160 c-25 -6 -27 -8 -12 -15 12 -5 24 -2 35 9 9 9 14 15 12 15
-3 -1 -18 -5 -35 -9z"/>
<path d="M5522 2134 c-30 -14 -51 -28 -48 -31 3 -3 26 4 51 16 24 11 49 21 54
21 6 0 13 5 16 10 10 16 -17 10 -73 -16z"/>
<path d="M5660 2111 c-25 -10 -54 -21 -65 -25 -11 -4 -30 -13 -43 -19 -12 -6
-37 -11 -56 -11 -22 -1 -32 -5 -29 -13 3 -7 9 -13 14 -13 10 0 130 45 166 62
12 6 33 8 47 4 22 -5 26 -3 26 14 0 24 -1 24 -60 1z"/>
<path d="M5097 1946 c-15 -14 -29 -26 -31 -26 -5 0 -78 -53 -119 -86 -9 -8
-21 -14 -25 -14 -5 0 -17 -8 -28 -18 -10 -10 -46 -37 -79 -60 -115 -80 -150
-106 -175 -130 -18 -18 -11 -15 25 9 28 18 56 39 63 46 7 7 26 20 42 30 17 9
30 21 30 25 0 4 7 8 15 8 8 0 15 5 15 10 0 6 7 10 15 10 8 0 15 3 15 8 0 4 25
23 55 42 30 19 55 38 55 43 0 4 6 7 13 7 7 0 22 8 33 18 10 10 26 23 35 28 30
17 82 65 76 70 -3 3 -16 -6 -30 -20z"/>
<path d="M1830 1872 c0 -4 -10 -18 -23 -32 -65 -70 -256 -347 -294 -425 -13
-27 -28 -57 -33 -65 -44 -75 -83 -209 -100 -341 -5 -42 -11 -83 -12 -90 -2
-12 52 -15 312 -19 509 -7 4574 -11 4590 -4 8 3 143 7 300 8 l285 1 -1 30 c-1
35 -14 106 -21 118 -2 4 -7 20 -9 35 -13 70 -129 323 -195 424 -13 20 -37 60
-54 88 -55 96 -130 203 -140 202 -6 -1 -13 -58 -17 -129 -4 -71 -12 -198 -18
-283 -5 -85 -10 -194 -10 -242 0 -98 1 -97 -88 -155 l-57 -38 -405 1 c-223 0
-1163 4 -2090 8 -1547 6 -1688 8 -1725 23 -41 18 -95 65 -95 83 0 5 -6 10 -14
10 -11 0 -16 21 -20 83 -6 70 -36 668 -36 705 0 6 -7 12 -15 12 -8 0 -15 -3
-15 -8z"/>
<path d="M5120 1872 c0 -4 -12 -15 -27 -24 -21 -13 -23 -18 -10 -18 9 0 17 3
17 8 0 4 12 15 28 24 20 13 22 18 10 18 -10 0 -18 -3 -18 -8z"/>
<path d="M5217 1855 c-15 -14 -23 -25 -16 -25 10 0 49 37 49 47 0 6 -5 3 -33
-22z"/>
<path d="M5040 1810 c0 -5 -8 -10 -17 -11 -11 0 -13 -3 -6 -6 7 -2 23 3 35 11
18 13 19 16 5 16 -9 0 -17 -4 -17 -10z"/>
<path d="M5152 1805 c-17 -20 5 -20 24 0 12 11 12 15 2 15 -7 -1 -19 -7 -26
-15z"/>
<path d="M4972 1765 c-16 -19 -3 -19 22 0 14 11 16 15 5 15 -8 -1 -20 -7 -27
-15z"/>
<path d="M5086 1755 c-37 -32 -25 -32 22 0 20 14 30 25 22 25 -8 0 -28 -11
-44 -25z"/>
<path d="M4906 1715 c-16 -14 -25 -25 -19 -25 5 0 18 8 29 18 11 11 26 22 34
25 13 5 13 6 0 6 -8 1 -28 -10 -44 -24z"/>
<path d="M5011 1699 c-19 -16 -30 -29 -25 -29 12 0 68 49 63 54 -2 3 -20 -8
-38 -25z"/>
<path d="M5632 1690 c0 -14 2 -19 5 -12 2 6 2 18 0 25 -3 6 -5 1 -5 -13z"/>
<path d="M4812 1649 c-24 -17 -41 -34 -37 -37 3 -4 9 -2 13 4 4 6 25 23 47 37
22 15 35 27 30 27 -6 -1 -29 -15 -53 -31z"/>
<path d="M4948 1657 c-7 -8 -24 -19 -37 -26 -12 -7 -21 -15 -18 -18 6 -6 77
39 77 50 0 11 -7 9 -22 -6z"/>
<path d="M4724 1585 c-10 -8 -14 -14 -9 -14 6 0 19 6 29 14 11 8 15 15 10 15
-6 0 -19 -7 -30 -15z"/>
<path d="M4857 1593 c-13 -12 -7 -23 13 -23 11 0 20 7 20 15 0 15 -21 21 -33
8z"/>
<path d="M4913 1563 c4 -6 26 -13 49 -17 24 -3 66 -10 93 -15 103 -18 150 -24
143 -16 -4 4 -55 16 -115 26 -59 11 -123 23 -142 26 -22 4 -32 3 -28 -4z"/>
<path d="M4652 1553 c-18 -2 -30 -9 -27 -14 9 -13 37 -10 59 6 11 8 16 14 10
13 -5 0 -24 -3 -42 -5z"/>
<path d="M4802 1505 c6 -6 100 -25 262 -52 26 -4 37 -3 33 4 -4 6 -28 13 -54
17 -27 3 -73 10 -103 16 -94 17 -145 23 -138 15z"/>
<path d="M5228 1503 c7 -3 16 -2 19 1 4 3 -2 6 -13 5 -11 0 -14 -3 -6 -6z"/>
<path d="M4615 1460 c3 -5 21 -10 38 -10 24 0 28 3 17 10 -20 13 -63 13 -55 0z"/>
<path d="M5591 1454 c0 -11 3 -14 6 -6 3 7 2 16 -1 19 -3 4 -6 -2 -5 -13z"/>
<path d="M4705 1445 c23 -11 270 -53 280 -47 5 4 -10 10 -35 14 -25 4 -70 12
-100 17 -70 13 -158 23 -145 16z"/>
<path d="M5165 1435 c28 -7 58 -16 68 -20 28 -12 19 3 -13 20 -16 8 -46 15
-67 14 l-38 -1 50 -13z"/>
<path d="M5055 1380 c91 -20 167 -30 178 -23 11 8 -52 18 -168 28 -49 4 -49 4
-10 -5z"/>
<path d="M5651 1334 c0 -11 3 -14 6 -6 3 7 2 16 -1 19 -3 4 -6 -2 -5 -13z"/>
<path d="M5605 1291 c-20 -4 -26 -9 -17 -14 14 -10 52 0 52 14 0 5 -1 8 -2 8
-2 -1 -16 -4 -33 -8z"/>
</g>
</svg>
